<svg fill="none" height="21" viewBox="0 0 28 21" width="28" xmlns="http://www.w3.org/2000/svg"><path d="m26.13 8.55h-24.96c-1.0764002 0-1.17.87165-1.17 1.95 0 1.0784.0935998 1.95 1.17 1.95h24.96c1.0764 0 1.17-.8716 1.17-1.95 0-1.07835-.0936-1.95-1.17-1.95zm0 7.8h-24.96c-1.0764002 0-1.17.8717-1.17 1.95 0 1.0784.0935998 1.95 1.17 1.95h24.96c1.0764 0 1.17-.8716 1.17-1.95 0-1.0783-.0936-1.95-1.17-1.95zm-24.96-11.7h24.96c1.0764 0 1.17-.87165 1.17-1.95s-.0936-1.95-1.17-1.95h-24.96c-1.0764002 0-1.17.87165-1.17 1.95s.0935998 1.95 1.17 1.95z" fill="#8c8c8c"/></svg>