<svg width="28" height="21" viewBox="0 0 28 21" fill="none" xmlns="http://www.w3.org/2000/svg">
<path d="M26.13 8.55H1.17C0.0935998 8.55 0 9.42165 0 10.5C0 11.5784 0.0935998 12.45 1.17 12.45H26.13C27.2064 12.45 27.3 11.5784 27.3 10.5C27.3 9.42165 27.2064 8.55 26.13 8.55ZM26.13 16.35H1.17C0.0935998 16.35 0 17.2217 0 18.3C0 19.3784 0.0935998 20.25 1.17 20.25H26.13C27.2064 20.25 27.3 19.3784 27.3 18.3C27.3 17.2217 27.2064 16.35 26.13 16.35ZM1.17 4.65H26.13C27.2064 4.65 27.3 3.77835 27.3 2.7C27.3 1.62165 27.2064 0.75 26.13 0.75H1.17C0.0935998 0.75 0 1.62165 0 2.7C0 3.77835 0.0935998 4.65 1.17 4.65Z" fill="#8C8C8C"/>
</svg>
