<svg fill="none" height="24" viewBox="0 0 24 24" width="24" xmlns="http://www.w3.org/2000/svg"><path d="m12 0c-3.26 0-3.667.015-4.947.072-1.278.06-2.148.261-2.913.558-.789.306-1.459.717-2.126 1.384s-1.079 1.336-1.384 2.126c-.297.765-.499 1.635-.558 2.913-.06 1.28-.072 1.687-.072 4.947s.015 3.667.072 4.947c.06 1.277.261 2.148.558 2.913.301292.8009.7736 1.5264 1.384 2.126.59928.6108 1.3249 1.0832 2.126 1.384.766.296 1.636.499 2.913.558 1.28.06 1.687.072 4.947.072s3.667-.015 4.947-.072c1.277-.06 2.148-.262 2.913-.558.8007-.3017 1.5261-.7739 2.126-1.384.611-.5991 1.0834-1.3248 1.384-2.126.296-.765.499-1.636.558-2.913.06-1.28.072-1.687.072-4.947s-.015-3.667-.072-4.947c-.06-1.277-.262-2.149-.558-2.913-.3014-.80078-.7737-1.52627-1.384-2.126-.5988-.61136-1.3246-1.08381-2.126-1.384-.765-.297-1.636-.499-2.913-.558-1.28-.06-1.687-.072-4.947-.072zm0 2.16c3.203 0 3.585.016 4.85.071 1.17.055 1.805.249 2.227.415.562.217.96.477 1.382.896.419.42.679.819.896 1.381.164.422.36 1.057.413 2.227.057 1.266.07 1.646.07 4.85s-.015 3.585-.074 4.85c-.061 1.17-.256 1.805-.421 2.227-.1952.5208-.5021.9925-.899 1.382-.3879.3973-.8593.7034-1.38.896-.42.164-1.065.36-2.235.413-1.274.057-1.649.07-4.859.07-3.211 0-3.586-.015-4.859-.074-1.171-.061-1.816-.256-2.236-.421-.5211-.1928-.99232-.5-1.379-.899-.40142-.3853-.70929-.8573-.9-1.38-.165-.42-.359-1.065-.42-2.235-.045-1.26-.061-1.649-.061-4.844 0-3.196.016-3.586.061-4.861.061-1.17.255-1.814.42-2.234.21-.57.479-.96.9-1.381.419-.419.81-.689 1.379-.898.42-.166 1.051-.361 2.221-.421 1.275-.045 1.65-.06 4.859-.06zm0 3.678c-.8092 0-1.6105.15939-2.3581.46905-.7476.30967-1.4269.76356-1.99909 1.33576-.5722.57219-1.02609 1.25149-1.33576 1.99909s-.46905 1.5489-.46905 2.3581.15938 1.6105.46905 2.3581.76356 1.4269 1.33576 1.9991c.57219.5722 1.25149 1.0261 1.99909 1.3357.7476.3097 1.5489.4691 2.3581.4691 1.6343 0 3.2016-.6492 4.3572-1.8048s1.8048-2.7229 1.8048-4.3572-.6492-3.20159-1.8048-4.35719-2.7229-1.80481-4.3572-1.80481zm0 10.162c-2.21 0-4-1.79-4-4s1.79-4 4-4 4 1.79 4 4-1.79 4-4 4zm7.846-10.405c-.0139.37262-.1717.72536-.4402.98407s-.6269.40326-.9998.40326-.7313-.14455-.9998-.40326-.4263-.61145-.4402-.98407c0-.38191.1517-.74818.4218-1.01823.27-.27006.6363-.42177 1.0182-.42177s.7482.15171 1.0182.42177c.2701.27005.4218.63632.4218 1.01823z" fill="#061323"/></svg>