<svg width="35" height="17" viewBox="0 0 35 17" fill="none" xmlns="http://www.w3.org/2000/svg">
<path fill-rule="evenodd" clip-rule="evenodd" d="M17.1862 0C20.6536 0 24.1841 0.316695 27.0841 1.26678L28.7863 0.380034C30.0472 -0.316695 30.6146 0.760068 29.795 1.26678L28.6602 1.96351C31.9385 3.29363 34.2081 5.38382 34.145 7.7907C34.019 12.5411 26.5167 16.0881 17.1862 16.3415C14.9797 16.3415 11.8905 16.0881 10.1883 15.7714C8.04483 15.328 9.68397 14.1879 10.1883 13.8712L20.0232 7.66402C22.3558 6.20722 21.6623 7.22065 20.9058 7.98072L17.1862 11.9711C16.4927 12.7311 15.7992 13.1745 18.0058 13.4279C18.6993 13.4912 21.7884 13.5545 24.3102 12.9212C27.5254 12.2244 31.0559 10.831 31.8124 9.12082C33.5146 5.1938 27.3993 2.85026 27.3363 2.85026L7.98178 14.6947C6.91003 15.0113 6.46873 15.0747 5.77524 14.6947C2.68608 13.1745 0.73172 11.3377 0.73172 8.9308C0.73172 4.37039 8.99049 0.126678 17.1862 0ZM25.2558 2.2802C20.235 1.06809 14.9791 1.26529 10.0622 2.85026C8.48613 3.42031 6.84699 4.0537 5.46002 5.1938C1.55129 8.36075 3.63174 10.3243 5.58611 10.1976C8.54918 10.0076 10.6927 9.12082 12.647 8.36075C14.5384 7.66402 16.0514 6.90395 17.5014 6.27056C20.5275 4.94044 22.7341 3.61032 25.2558 2.2802Z" fill="#1A1A1A"/>
<path fill-rule="evenodd" clip-rule="evenodd" d="M6.69417 13.419C7.26071 14.5592 15.3182 9.42828 19.7246 6.95785C15.7588 9.36494 12.5484 11.6453 7.70135 14.0524C6.75712 14.4958 6.37942 14.2425 6.69417 13.419ZM9.52687 11.9621C7.8902 12.8489 5.93878 13.1023 4.86865 12.6588C3.86146 12.2154 1.65825 10.9485 1.40645 9.49163C1.15466 7.97136 1.5953 6.95785 3.42082 5.05752C4.36506 4.04401 6.12763 2.96716 8.20494 2.08034C11.9957 0.720258 16.024 0.159649 20.0394 0.433387C22.3055 0.496732 24.5087 0.813453 26.7749 1.4469L26.3972 1.70027C20.5064 0.298926 14.3475 0.539822 8.58264 2.39706C6.69417 3.15719 5.12044 4.23405 3.79851 5.43759C0.714014 8.22474 2.16184 10.6318 5.62403 10.6952C8.70854 10.7585 13.3038 8.66815 17.8991 6.57779C22.5573 4.55077 25.5159 2.46041 29.2929 0.496732C29.4817 0.370043 29.6076 0.62342 29.4188 0.750109C22.998 4.48742 16.1365 8.41477 9.52687 11.9621Z" fill="#CCCCCC"/>
<path fill-rule="evenodd" clip-rule="evenodd" d="M28.3775 2.07315L27.9969 2.32529C30.1538 3.4599 32.7548 4.27934 33.0085 7.7462C33.1988 10.7718 28.8216 12.7889 23.1756 13.7975C20.638 14.2387 18.4177 14.0496 16.7683 13.9866C15.0554 13.8605 15.3726 12.978 16.1973 12.2216L20.7015 7.9353C21.7799 6.92676 21.653 6.92676 20.3208 7.7462L10.0438 14.2387C9.34596 14.6799 9.34596 14.9321 9.98035 15.0581C13.977 16.0036 18.2274 16.1297 23.239 15.3103C27.4259 14.6169 33.9601 11.8434 34.0236 7.99834C34.087 4.84664 30.5344 3.01866 28.3775 2.07315Z" fill="#B3B3B3"/>
<path fill-rule="evenodd" clip-rule="evenodd" d="M20.6607 7.45707C16.9404 9.9682 13.22 13.1071 9.87805 14.4882C14.1028 15.3671 18.5798 15.8066 23.3721 14.7394C32.6414 12.7932 33.9025 9.0893 33.4611 6.82928C34.1547 10.3449 29.1733 12.9816 23.5613 14.1116C20.4085 14.7394 17.634 14.7394 15.0487 14.3627C13.7245 14.1743 13.5353 13.7349 14.4181 12.9188C16.6881 10.7843 18.5798 9.15208 20.6607 7.45707Z" fill="#1A1A1A"/>
</svg>
