<svg width="75" height="11" viewBox="0 0 75 11" fill="none" xmlns="http://www.w3.org/2000/svg">
<path d="M62.3141 3.07671H63.3588V10.8159H62.3141V3.07671ZM62.3141 0.331239H63.3588V2.11359H62.3141V0.331239ZM64.6641 0.352946H65.7076V10.8087H64.6641V0.352946ZM31.1885 3.06706H32.1763V4.07159C32.7411 3.23388 33.1737 2.89703 34.0344 2.89703C35.0506 2.89703 35.9113 3.32191 36.5319 4.07159C36.6024 4.17048 36.659 4.26977 36.7295 4.36865C36.7716 4.26977 36.8281 4.18455 36.8846 4.07159C37.421 3.32191 38.4232 2.89703 39.326 2.89703C40.1582 2.89703 40.7636 3.05219 41.526 3.81634C42.147 4.43859 42.2877 5.48613 42.2877 6.39178V10.8058H41.2438V6.49107C41.2438 5.92509 41.138 5.17099 40.7992 4.68983C40.3755 4.09571 39.9891 3.90196 39.2695 3.90196C38.6064 3.90196 37.943 4.24163 37.5621 4.77906C37.2234 5.26023 37.2374 5.92549 37.2374 6.49147V10.8062H36.1939V6.37771C36.1939 5.79766 36.1655 5.34504 35.8267 4.83534C35.4319 4.26977 34.7828 3.90196 34.0913 3.90196C33.4423 3.90196 32.9949 4.35338 32.6 4.89081C32.2473 5.40051 32.2328 5.95202 32.2328 6.54614V10.8062H31.1889V3.06706H31.1885ZM5.50329 0.146332C2.48346 0.146332 0 2.55173 0 5.57979C0 8.57931 2.58207 10.9421 5.50329 10.9421C8.52273 10.9421 11.0202 8.5371 11.0202 5.50905C11.0206 2.50913 8.45217 0.146332 5.50329 0.146332ZM5.51772 9.93717C3.14691 9.93717 1.04429 7.99927 1.04429 5.57939C1.04429 3.13138 3.06233 1.15046 5.51772 1.13639V1.15046C7.90256 1.15046 9.97672 3.08917 9.97672 5.50864C9.97632 7.97032 7.97272 9.93717 5.51772 9.93717ZM57.0161 2.90025C55.8736 2.90025 54.6036 3.43768 54.0957 4.51296V0.353348H53.0514V10.8095H54.0395V9.47933C54.6465 10.4839 56.0011 10.9936 57.1159 10.9936C58.244 10.9936 59.2041 10.6965 60.276 9.47933C60.6998 9.01224 61.1937 8.02218 61.1937 6.90429C61.1929 4.61225 59.2598 2.90025 57.0161 2.90025ZM57.2013 10.0051C55.5076 10.0051 54.0239 8.73608 54.0239 7.00961C54.0239 6.16105 54.236 5.45357 54.8421 4.84499C55.4204 4.24882 56.2143 3.9121 57.0437 3.91121C58.7655 3.91121 60.1482 5.18466 60.1482 6.93926C60.1486 8.62313 58.8802 10.0051 57.2013 10.0051ZM21.7458 0.353348V4.41448C21.1108 3.40954 19.9114 2.90025 18.7544 2.90025C16.5107 2.90025 14.6057 4.61225 14.6057 6.91836C14.6057 8.05032 15.0715 9.06932 15.4524 9.39451C16.5391 10.5409 17.569 10.9936 18.6839 10.9936C20.0244 10.9936 21.0262 10.4839 21.8023 9.39451V10.8095H22.7901V0.353348H21.7458ZM18.7119 9.99546C17.0182 9.99546 15.6496 8.60866 15.6496 6.91113C15.6496 5.24133 17.0467 3.91121 18.6835 3.91121C20.3627 3.91121 21.7734 5.19872 21.7734 6.91113C21.7738 8.60825 20.4048 9.99546 18.7119 9.99546ZM70.9214 9.99546C69.4963 9.99546 68.0716 8.79276 68.0151 7.32154V7.3123L75 7.32154C74.9711 6.20365 74.816 5.29801 74.0964 4.40684C73.3203 3.45899 72.2055 2.90708 70.992 2.90708C68.7487 2.90708 66.9708 4.7039 66.9708 6.95374C66.9708 9.21764 68.7631 11 71.0205 11C72.349 11 73.6394 10.2455 74.3662 9.12961L73.5372 8.58735C73.0024 9.4737 71.9565 9.99546 70.9214 9.99546ZM71.006 3.90196C72.432 3.90196 73.6875 4.99131 73.9553 6.36364H68.0151C68.2688 4.93503 69.5528 3.90196 71.006 3.90196ZM47.7806 2.81141C45.5224 2.81141 43.7309 4.65043 43.7309 6.90027C43.7309 9.12157 45.5934 10.9043 47.7806 10.9043C50.0099 10.9043 51.7878 9.00862 51.7878 6.80139C51.7882 4.65084 49.9253 2.81141 47.7806 2.81141ZM47.7806 9.89979C46.1294 9.89979 44.7748 8.5556 44.7748 6.90027C44.7748 5.21681 46.0728 3.81594 47.7806 3.81594C48.5423 3.81594 49.2903 4.14154 49.8407 4.6645C50.4617 5.25902 50.7443 5.95202 50.7443 6.80099C50.7443 8.48525 49.5016 9.89979 47.7806 9.89979ZM12.6378 0.352946H13.6817V10.8087H12.6378V0.352946ZM29.6079 4.07159C29.197 3.32352 28.1222 2.88457 27.2543 2.88457C26.0408 2.88457 24.4529 3.48914 24.4253 5.04919C24.4978 6.00066 24.9496 6.72461 27.0426 7.20014C27.8047 7.41239 28.9729 7.75406 29.0354 8.68583C29.0991 9.64092 27.9318 9.97335 27.1837 9.97335C26.3936 9.97335 25.6143 9.56816 25.215 8.80361L24.4525 9.45923C24.853 10.4332 26.03 10.9775 27.0847 10.9775C28.5239 10.9775 30.0793 10.4782 30.0793 8.5158C30.0793 7.11493 28.5804 6.6201 27.4235 6.25189C26.7464 6.03965 25.3942 5.92549 25.4692 4.96437C25.5417 4.03501 26.5487 3.8891 27.1412 3.8891C27.8183 3.8891 28.6634 4.18093 28.9179 4.72681L29.6079 4.07159Z" fill="black"/>
</svg>
