<svg fill="none" height="18" viewBox="0 0 22 18" width="22" xmlns="http://www.w3.org/2000/svg"><path d="m19.7386 4.48592c.014.19687.014.39378.014.59064 0 6.00464-4.5368 12.92344-12.82872 12.92344-2.55459 0-4.92767-.7453-6.92388-2.039.362958.0421.711909.0562 1.08883.0562 2.10784 0 4.04823-.7172 5.59774-1.9406-1.98225-.0422-3.64343-1.35-4.21577-3.15.27921.0421.55838.0703.85156.0703.40481 0 .80966-.0563 1.18654-.1547-2.06599-.4219-3.615533-2.25002-3.615533-4.45783v-.05623c.600233.3375 1.298263.54843 2.038063.57653-1.21448-.81565-2.010133-2.20782-2.010133-3.78283 0-.84373.223313-1.61717.614193-2.292174 2.21956 2.756244 5.55589 4.556214 9.29701 4.753124-.0698-.3375-.1117-.68903-.1117-1.0406 0-2.50315 2.0102-4.54219 4.5089-4.54219 1.2982 0 2.4708.548436 3.2944 1.43437 1.019-.19686 1.9962-.576568 2.8617-1.096868-.3351 1.054708-1.047 1.940648-1.9822 2.503108.9073-.09839 1.7868-.35157 2.5964-.70309-.6141.89996-1.3819 1.70149-2.2614 2.3484z" fill="#fff"/></svg>