<svg fill="none" height="21" viewBox="0 0 29 21" width="29" xmlns="http://www.w3.org/2000/svg"><path d="m28.3349 3.54229c-.1644-.61219-.4867-1.17046-.9346-1.61895s-1.0058-.77148-1.6178-.936621c-2.2526-.60586-11.2825-.60586-11.2825-.60586s-9.02988 0-11.28252.602637c-.61224.164614-1.17039.487414-1.6184.935984-.44801.44858-.770106 1.00714-.933943 1.61958-.6026371 2.25586-.602637 6.96094-.602637 6.96094s-.0000001 4.7051.602637 6.9577c.331933 1.244 1.311623 2.2236 2.552343 2.5556 2.25264.6058 11.28252.6058 11.28252.6058s9.0299 0 11.2825-.6058c1.244-.332 2.2204-1.3116 2.5524-2.5556.6026-2.2526.6026-6.9577.6026-6.9577s0-4.70508-.6026-6.95771zm-16.7031 11.27611v-8.63676l7.4766 4.28616z" fill="#061323"/></svg>